<?xml version="1.0" standalone="no"?>
<!DOCTYPE svg PUBLIC "-//W3C//DTD SVG 20010904//EN"
 "http://www.w3.org/TR/2001/REC-SVG-20010904/DTD/svg10.dtd">
<svg version="1.0" xmlns="http://www.w3.org/2000/svg"
 width="200.000000pt" height="200.000000pt" viewBox="0 0 200.000000 200.000000"
 preserveAspectRatio="xMidYMid meet">
<metadata>
Created by potrace 1.14, written by Peter Selinger 2001-2017
</metadata>
<g transform="translate(0.000000,200.000000) scale(0.100000,-0.100000)"
fill="#000000" stroke="none">
<path d="M830 1805 c-85 -85 -162 -155 -171 -155 -52 0 -64 -88 -17 -123 23
-17 31 -18 56 -8 26 11 52 46 52 71 0 4 60 67 132 139 l133 131 132 -132 c86
-86 133 -140 135 -156 2 -14 15 -34 30 -45 23 -17 31 -18 57 -8 16 7 35 26 42
42 10 26 9 34 -8 57 -11 15 -29 28 -40 30 -10 2 -89 72 -173 157 -118 118
-161 155 -180 155 -19 0 -62 -37 -180 -155z"/>
<path d="M388 1370 c-9 -6 -19 -22 -23 -38 -4 -16 -65 -88 -156 -182 -90 -94
-149 -163 -149 -175 0 -13 55 -75 151 -170 82 -83 156 -165 164 -183 22 -51
73 -62 118 -24 36 32 7 112 -42 112 -10 0 -79 58 -155 131 l-136 131 132 139
c94 100 138 139 154 139 26 0 54 34 54 65 0 36 -28 65 -63 65 -18 0 -40 -5
-49 -10z"/>
<path d="M1556 1365 c-37 -38 -26 -100 21 -111 26 -6 262 -227 283 -265 13
-23 -237 -271 -281 -280 -81 -17 -73 -129 9 -129 36 0 49 9 64 46 7 17 82 97
166 179 96 92 152 154 152 167 0 12 -59 81 -150 176 -82 85 -150 161 -150 167
0 7 -9 24 -21 39 -23 30 -68 35 -93 11z"/>
<path d="M644 1126 c-32 -14 -61 -65 -50 -91 3 -9 18 -15 40 -15 28 0 35 4 38
22 2 13 11 24 21 26 13 3 17 -3 17 -26 0 -24 -6 -32 -28 -40 -42 -14 -89 -59
-95 -88 -15 -79 61 -136 113 -84 16 16 20 17 20 5 0 -11 11 -15 38 -15 l38 0
-4 128 c-2 70 -8 137 -14 148 -20 42 -78 54 -134 30z m66 -205 c0 -43 -23 -63
-38 -33 -10 18 -6 39 11 60 17 22 27 13 27 -27z"/>
<path d="M894 1130 c-44 -17 -54 -48 -54 -157 0 -91 2 -105 23 -128 29 -34 91
-44 135 -21 23 12 34 27 42 57 16 57 8 71 -37 67 -34 -3 -38 -6 -41 -33 -4
-38 -20 -55 -32 -35 -15 24 -12 176 3 189 18 14 27 4 27 -31 0 -26 3 -28 39
-28 22 0 43 4 46 10 3 5 1 28 -5 51 -9 32 -18 43 -45 55 -38 16 -69 17 -101 4z"/>
<path d="M1198 1126 c-16 -8 -28 -11 -28 -5 0 5 -18 9 -40 9 l-40 0 0 -155 0
-155 40 0 40 0 0 124 c0 104 3 125 16 130 9 3 20 4 25 0 5 -3 9 -61 9 -130 l0
-124 40 0 40 0 0 124 c0 104 3 125 16 130 9 3 20 4 25 0 5 -3 9 -61 9 -130 l0
-124 40 0 40 0 0 140 c0 129 -2 142 -21 161 -16 16 -28 20 -52 15 -18 -4 -38
-13 -45 -20 -12 -12 -17 -11 -33 5 -23 23 -44 24 -81 5z"/>
<path d="M660 443 c-31 -12 -50 -37 -50 -68 0 -33 25 -65 51 -65 8 0 84 -70
169 -155 118 -118 161 -155 180 -155 19 0 62 37 180 155 84 85 163 155 173
157 11 2 29 15 40 30 17 23 18 31 8 57 -7 16 -26 35 -42 42 -26 10 -34 9 -57
-8 -15 -11 -28 -31 -30 -45 -2 -16 -49 -70 -136 -157 l-134 -133 -131 131
c-72 72 -131 135 -131 141 0 23 -24 59 -47 69 -13 6 -25 11 -26 10 -1 0 -9 -3
-17 -6z"/>
</g>
</svg>
